<svg width="48" height="48" viewBox="0 0 48 48" fill="none" xmlns="http://www.w3.org/2000/svg">
<path fill-rule="evenodd" clip-rule="evenodd" d="M28.794 9.357C27.66 9.0615 26.2185 8.9985 24 9C21.7815 8.9985 20.34 9.0615 19.2075 9.357C18.2985 9.582 17.9685 9.8715 17.7435 10.1835C17.4315 10.62 17.067 11.4915 16.824 13.35C16.6455 14.6925 16.557 16.308 16.521 18.3225C18.474 18.078 20.9265 18 24 18C27.0735 18 29.526 18.078 31.479 18.3225C31.443 16.308 31.3545 14.6925 31.1775 13.35C30.9345 11.4915 30.5685 10.62 30.2565 10.1835C30.0315 9.8715 29.703 9.582 28.794 9.357ZM34.4895 18.9615C34.341 7.3455 32.7045 6 24.0015 6C15.2985 6 13.662 7.3455 13.5135 18.9615C9.60746 20.289 9.00146 23.328 9.00146 30C9.00146 40.5 10.5015 42 24.0015 42C37.5015 42 39.0015 40.5 39.0015 30C39.0015 23.328 38.3955 20.289 34.4895 18.9615ZM25.5015 31.0995C26.0734 30.7693 26.5204 30.2596 26.7731 29.6495C27.0258 29.0393 27.0702 28.3629 26.8992 27.725C26.7283 27.0871 26.3517 26.5234 25.8278 26.1214C25.3038 25.7193 24.6619 25.5014 24.0015 25.5014C23.3411 25.5014 22.6991 25.7193 22.1752 26.1214C21.6512 26.5234 21.2746 27.0871 21.1037 27.725C20.9328 28.3629 20.9771 29.0393 21.2298 29.6495C21.4826 30.2596 21.9295 30.7693 22.5015 31.0995V33C22.5015 33.3978 22.6595 33.7794 22.9408 34.0607C23.2221 34.342 23.6036 34.5 24.0015 34.5C24.3993 34.5 24.7808 34.342 25.0621 34.0607C25.3434 33.7794 25.5015 33.3978 25.5015 33V31.0995Z" fill="black"/>
</svg>
